<svg xmlns="http://www.w3.org/2000/svg" viewBox="0 0 256 256">
  <defs>
    <clipPath id="c"><ellipse cx="124" cy="152" rx="80" ry="64"/></clipPath>
  </defs>
  <rect width="256" height="256" rx="28" fill="#d4ecdf"/>
  <path d="M10 200c20 -30 40 10 60 -20s30 -20 40 -40" fill="none" stroke="#3a2a1c" stroke-width="3" stroke-dasharray="6 7" stroke-linecap="round" opacity="0.5"/>
  <g transform="translate(128 128) rotate(-10) scale(0.88) translate(-124 -150)">
  <g stroke="#3a2a1c" stroke-width="5" stroke-linecap="round" fill="none">
    <path d="M90 206l-6 16M120 214l-2 16M150 210l4 16"/>
    <path d="M168 104c4 -20 0 -34 -8 -46"/>
    <path d="M190 112c10 -18 20 -26 32 -30"/>
  </g>
  <circle cx="158" cy="56" r="8" fill="#3a2a1c"/>
  <circle cx="224" cy="80" r="8" fill="#3a2a1c"/>
  <path d="M46 152l-26 6l26 10z" fill="#3a2a1c"/>
  <ellipse cx="124" cy="152" rx="80" ry="64" fill="#ffd043" stroke="#ffd043" stroke-width="10" stroke-dasharray="1 7" stroke-linecap="round"/>
  <g clip-path="url(#c)" fill="#3a2a1c">
    <path d="M58 80c-8 30 -8 110 0 150h22c-8 -40 -8 -120 0 -150z"/>
    <path d="M100 80c-8 30 -8 110 0 150h22c-8 -40 -8 -120 0 -150z"/>
  </g>
  <g clip-path="url(#c)" fill="none" stroke="#3a2a1c" stroke-width="9" stroke-dasharray="1 6" stroke-linecap="round">
    <path d="M58 80c-8 30 -8 110 0 150M80 80c-8 30 -8 110 0 150M100 80c-8 30 -8 110 0 150M122 80c-8 30 -8 110 0 150"/>
  </g>
  <g fill="#e9f7ff" stroke="#3a2a1c" stroke-width="4">
    <ellipse cx="88" cy="84" rx="24" ry="38" transform="rotate(-28 88 84)"/>
    <ellipse cx="124" cy="76" rx="22" ry="36" transform="rotate(12 124 76)"/>
  </g>
  <path d="M80 70c4 -10 10 -16 16 -18M118 60c2 -8 8 -12 14 -12" stroke="#ffffff" stroke-width="4" stroke-linecap="round" fill="none"/>
  <ellipse cx="164" cy="146" rx="9" ry="12" fill="#3a2a1c"/>
  <ellipse cx="194" cy="146" rx="9" ry="12" fill="#3a2a1c"/>
  <circle cx="167" cy="141" r="3.5" fill="#fff"/>
  <circle cx="197" cy="141" r="3.5" fill="#fff"/>
  <ellipse cx="156" cy="170" rx="9" ry="6" fill="#ff8a7a" opacity="0.8"/>
  <ellipse cx="204" cy="170" rx="9" ry="6" fill="#ff8a7a" opacity="0.8"/>
  <path d="M170 170c6 8 14 8 20 0" stroke="#3a2a1c" stroke-width="4" stroke-linecap="round" fill="none"/>
  </g>
</svg>
